# xmcd
#
# Track frame offsets:
#	150
#	16472
#	41502
#	61540
#
# Disc length: 1153 seconds
# Revision: 0
# Processed by: cddbd v1.5.2PL0 Copyright (c) Steve Scherf et al.
# Submitted via: dBpowerAMP V12.0
#
DISCID=25047f04
DTITLE=Oceanic - Controlling Me
DYEAR=1992
DGENRE=Rave
TTITLE0=Controlling Me [Radio Friendly Mix]
TTITLE1=Controlling Me [Awesome 101 Mix]
TTITLE2=Strut’In
TTITLE3=Controlling Me [12” Extra Mix]
EXTD=
EXTT0=
EXTT1=
EXTT2=
EXTT3=
PLAYORDER=
